<?xml version="1.0" encoding="UTF-8"?><svg id="Lag_2" xmlns="http://www.w3.org/2000/svg" viewBox="0 0 1000 1000"><defs><style>.cls-1{fill:#284f77;stroke:#284f77;}.cls-1,.cls-2{stroke-miterlimit:10;stroke-width:2.67px;}.cls-2{fill:none;stroke:#7fa4d2;}</style></defs><g><polyline class="cls-2" points="347.5 841.17 714.5 806.83 500.83 794.17 567.83 707.17 800.5 276.83 869.83 413.83 736.83 594.83 800.5 276.83 372.83 337.5 612.5 323.83 598.83 202.17 372.83 337.5 454.33 132.67 598.83 202.17 736.83 594.83"/><polyline class="cls-2" points="347.5 841.17 181.17 836.5 156.5 372.5"/><line class="cls-2" x1="156.5" y1="372.5" x2="372.83" y2="337.5"/><line class="cls-2" x1="156.5" y1="372.5" x2="454.33" y2="132.67"/><line class="cls-2" x1="567.83" y1="707.17" x2="347.5" y2="841.17"/><polyline class="cls-2" points="869.83 413.83 181.17 836.5 234.5 613.17 156.5 372.5"/><polyline class="cls-2" points="325.83 514.17 234.5 613.17 372.83 337.5"/><line class="cls-2" x1="325.83" y1="514.17" x2="598.83" y2="202.17"/><polyline class="cls-2" points="234.5 613.17 567.83 707.17 714.5 806.83 869.83 413.83"/></g><g><g><path class="cls-1" d="M506.76,590.74h0c.33,0,.59,.27,.59,.6l-3.91,202.7c0,.32-.27,.58-.6,.57l-3.5-.07c-.32,0-.58-.27-.57-.6l3.91-202.7c0-.33,.28-.58,.61-.57,1.15,.05,2.31,.07,3.48,.07Z"/><path class="cls-1" d="M569.77,707.08l-3.35,.99c-.31,.09-.63-.08-.73-.39l-35.38-119.42c-.09-.31,.09-.64,.41-.73,1.12-.31,2.23-.64,3.33-.98,.31-.1,.64,.08,.74,.39l35.38,119.42c.09,.31-.08,.63-.39,.73Z"/></g><g><path class="cls-1" d="M559.63,574.36l156.74,231.09c.18,.27,.11,.63-.16,.81l-2.89,1.96c-.27,.18-.63,.11-.81-.16l-156.74-231.09c-.18-.27-.11-.64,.17-.82,.97-.63,1.93-1.28,2.87-1.95,.27-.19,.64-.12,.82,.15Z"/><path class="cls-1" d="M737.76,593.63l-1.33,3.24c-.12,.3-.46,.44-.76,.32l-145.85-59.95c-.3-.12-.44-.47-.31-.77,.46-1.06,.9-2.13,1.32-3.21,.12-.31,.46-.45,.77-.33l145.85,59.94c.3,.12,.44,.46,.32,.76Z"/></g><g><path class="cls-1" d="M801.45,279.04l-221.09,168.41c-.26,.2-.63,.14-.82-.12-.68-.94-1.39-1.86-2.11-2.76-.2-.26-.16-.63,.1-.83l221.1-168.41c.26-.2,.62-.15,.82,.11l2.12,2.78c.2,.26,.15,.62-.11,.82Z"/><path class="cls-1" d="M869.81,416.24l-274.24,65.52c-.32,.08-.64-.13-.71-.45-.25-1.14-.51-2.26-.8-3.38-.08-.32,.11-.64,.43-.71l274.24-65.52c.31-.07,.63,.12,.7,.43l.81,3.4c.08,.31-.12,.63-.43,.7Z"/></g><g><path class="cls-1" d="M600.89,203.41l-65.15,211.13c-.1,.31-.43,.48-.74,.38-1.1-.36-2.2-.7-3.32-1.02-.32-.09-.5-.42-.4-.73l65.14-211.13c.1-.31,.42-.48,.73-.39l3.34,1.03c.31,.1,.48,.42,.39,.73Z"/><path class="cls-1" d="M614.2,325.53l-58.85,98.37c-.17,.28-.53,.37-.81,.19-.98-.62-1.97-1.21-2.98-1.79-.28-.16-.38-.52-.21-.81l58.85-98.37c.17-.28,.52-.37,.8-.2l3,1.79c.28,.17,.37,.52,.2,.8Z"/></g><g><path class="cls-1" d="M375.01,336.47l75.97,92.51c.21,.25,.17,.63-.09,.83-.91,.72-1.8,1.45-2.68,2.2-.25,.21-.62,.18-.83-.07l-75.97-92.51c-.2-.25-.17-.62,.08-.82l2.7-2.22c.25-.2,.62-.17,.82,.08Z"/><path class="cls-1" d="M456.73,132.92l39.54,277.5c.05,.32-.18,.62-.51,.66-1.15,.14-2.3,.3-3.44,.49-.32,.05-.62-.17-.67-.49l-39.54-277.49c-.05-.32,.18-.62,.5-.66l3.46-.49c.32-.05,.62,.18,.66,.5Z"/></g><g><path class="cls-1" d="M416.73,505.6c.06,1.16,.15,2.32,.26,3.47,.03,.33-.21,.61-.54,.64l-89.86,6.75c-.32,.02-.6-.22-.63-.54l-.26-3.49c-.02-.32,.22-.6,.54-.63l89.86-6.75c.33-.02,.61,.22,.63,.55Z"/><path class="cls-1" d="M157.85,370.51l264.47,96.71c.31,.11,.46,.45,.34,.76-.42,1.08-.81,2.17-1.19,3.26-.11,.31-.44,.47-.75,.36l-264.47-96.71c-.3-.11-.46-.45-.35-.75l1.2-3.28c.11-.3,.45-.46,.75-.35Z"/></g><g><path class="cls-1" d="M235.17,614.78l-1.33-3.23c-.12-.3,.02-.64,.32-.76l187.85-77.69c.3-.13,.65,.02,.77,.33,.42,1.08,.87,2.15,1.33,3.21,.13,.3,0,.65-.31,.77l-187.86,77.68c-.3,.12-.64-.02-.76-.32Z"/><path class="cls-1" d="M442.77,564.1c.81,.82,1.65,1.63,2.49,2.42,.24,.22,.25,.6,.02,.83L183.25,837.7c-.22,.23-.59,.24-.83,.01l-2.51-2.43c-.23-.22-.24-.59-.01-.83l262.04-270.35c.23-.24,.6-.24,.83,0Z"/></g><path class="cls-1" d="M466.99,581.52c1.04,.51,2.09,1,3.14,1.47,.3,.13,.43,.48,.29,.78l-120.57,257.85c-.14,.29-.48,.42-.78,.28l-3.17-1.48c-.29-.14-.42-.48-.28-.78l120.57-257.85c.14-.3,.49-.42,.79-.27Z"/></g><g><circle class="cls-1" cx="454.33" cy="132.67" r="18.17"/><circle class="cls-1" cx="598.83" cy="202.17" r="18.17"/><circle class="cls-1" cx="612.5" cy="323.83" r="18.17"/><circle class="cls-1" cx="800.5" cy="276.83" r="18.17"/><circle class="cls-1" cx="372.83" cy="337.5" r="18.17"/><circle class="cls-1" cx="156.5" cy="372.5" r="18.17"/><circle class="cls-1" cx="325.83" cy="514.17" r="18.17"/><circle class="cls-1" cx="234.5" cy="613.17" r="18.17"/><circle class="cls-1" cx="181.17" cy="836.5" r="18.17"/><circle class="cls-1" cx="500.83" cy="794.17" r="18.17"/><circle class="cls-1" cx="714.5" cy="806.83" r="18.17"/><circle class="cls-1" cx="347.5" cy="841.17" r="18.17"/><circle class="cls-1" cx="567.83" cy="707.17" r="18.17"/><circle class="cls-1" cx="736.83" cy="594.83" r="18.17"/><circle class="cls-1" cx="869.83" cy="413.83" r="18.17"/></g></svg>